# xmcd
#
# Track frame offsets: 
#        150
#        17762
#        31227
#        44005
#        57020
#        71212
#        85640
#        97830
#        110052
#        123017
#        136855
#        147945
#        158022
#        168052
#        179000
#        188110
#
# Disc length: 2688 seconds
#
# Revision: 8
# Processed by: cddbd v1.5.2PL0 Copyright (c) Steve Scherf et al.
# Submitted via: ExactAudioCopy v0.99pb4
#
DISCID=cf0a7e10
DTITLE=The Supremes - The Christmas Collection
DYEAR=2003
DGENRE=Christmas
TTITLE0=White Christmas
TTITLE1=Silver Bells
TTITLE2=Born Of Mary
TTITLE3=Children's Christmas Song
TTITLE4=The Little Drummer Boy
TTITLE5=My Christmas Tree
TTITLE6=Rudolph, The Red-Nosed Reindeer
TTITLE7=Santa Claus Is Coming To Town
TTITLE8=My Favorite Things
TTITLE9=Twinkle Twinkle Little Me
TTITLE10=Little Bright Star
TTITLE11=Joy To The World
TTITLE12=The Christmas Song (Merry Christmas To You)
TTITLE13=Just A Lonely Christmas
TTITLE14=Noël
TTITLE15=Silent Night (feat. Florence Ballard)
EXTD=YEAR: 1999
EXTT0=
EXTT1=
EXTT2=
EXTT3=
EXTT4=
EXTT5=
EXTT6=
EXTT7=
EXTT8=
EXTT9=
EXTT10=
EXTT11=
EXTT12=
EXTT13=
EXTT14=
EXTT15=
PLAYORDER=
